<?xml version="1.0" encoding="UTF-8" standalone="no"?>
<!-- Created with Inkscape (http://www.inkscape.org/) -->

<svg
   xmlns:dc="http://purl.org/dc/elements/1.1/"
   xmlns:cc="http://creativecommons.org/ns#"
   xmlns:rdf="http://www.w3.org/1999/02/22-rdf-syntax-ns#"
   xmlns:svg="http://www.w3.org/2000/svg"
   xmlns="http://www.w3.org/2000/svg"
   xmlns:sodipodi="http://sodipodi.sourceforge.net/DTD/sodipodi-0.dtd"
   xmlns:inkscape="http://www.inkscape.org/namespaces/inkscape"
   width="288.22223mm"
   height="112.4381mm"
   viewBox="0 0 1021.2598 398.40271"
   id="svg2"
   version="1.1"
   inkscape:version="0.91 r13725"
   sodipodi:docname="logo.svg">
  <defs
     id="defs4">
    <inkscape:perspective
       sodipodi:type="inkscape:persp3d"
       inkscape:vp_x="0 : 372.04721 : 1"
       inkscape:vp_y="0 : 999.99993 : 0"
       inkscape:vp_z="1052.3621 : 372.04721 : 1"
       inkscape:persp3d-origin="526.18105 : 248.03147 : 1"
       id="perspective4184" />
  </defs>
  <sodipodi:namedview
     id="base"
     pagecolor="#ffffff"
     bordercolor="#666666"
     borderopacity="1.0"
     inkscape:pageopacity="0.0"
     inkscape:pageshadow="2"
     inkscape:zoom="0.7"
     inkscape:cx="519.89375"
     inkscape:cy="131.79569"
     inkscape:document-units="px"
     inkscape:current-layer="layer1"
     showgrid="true"
     inkscape:snap-others="true"
     inkscape:snap-object-midpoints="false"
     showguides="true"
     inkscape:snap-grids="true"
     inkscape:snap-page="true"
     inkscape:snap-to-guides="true"
     inkscape:window-width="1215"
     inkscape:window-height="776"
     inkscape:window-x="65"
     inkscape:window-y="24"
     inkscape:window-maximized="1"
     fit-margin-top="3"
     fit-margin-left="3"
     fit-margin-right="3"
     fit-margin-bottom="3">
    <inkscape:grid
       type="xygrid"
       id="grid4178"
       originx="-13.779556"
       originy="-179.37003" />
  </sodipodi:namedview>
  <metadata
     id="metadata7">
    <rdf:RDF>
      <cc:Work
         rdf:about="">
        <dc:format>image/svg+xml</dc:format>
        <dc:type
           rdf:resource="http://purl.org/dc/dcmitype/StillImage" />
        <dc:title></dc:title>
      </cc:Work>
    </rdf:RDF>
  </metadata>
  <g
     inkscape:label="Layer 1"
     inkscape:groupmode="layer"
     id="layer1"
     transform="translate(-13.779558,-474.58944)">
    <g
       style="font-style:normal;font-variant:normal;font-weight:normal;font-stretch:normal;font-size:375px;line-height:125%;font-family:'Phetsarath OT';-inkscape-font-specification:'Phetsarath OT';letter-spacing:0px;word-spacing:0px;fill:#000000;fill-opacity:1;stroke:none;stroke-width:1px;stroke-linecap:butt;stroke-linejoin:miter;stroke-opacity:1"
       id="text4180">
      <path
         d="m 358.8227,806.17603 -38.26904,0 -62.98828,-224.67041 -61.15723,224.67041 -38.26904,0 -70.129398,-273.37647 39.001468,0 51.45263,221.92383 60.60791,-221.92383 37.53663,0 62.25585,221.92383 50.35401,-221.92383 39.00146,0 -69.39697,273.37647 z"
         id="path4260"
         inkscape:connector-curvature="0" />
      <path
         d="m 459.3476,609.70386 28.93067,0 0,35.52246 q 21.60644,-34.79004 43.39599,-40.1001 4.94385,-1.09863 10.25391,-1.09863 4.02832,0 11.90185,1.09863 l 0,31.86035 q -26.9165,0.36621 -38.63525,8.23975 -1.09863,0.91553 -2.19726,1.64795 -22.15577,16.11328 -22.15577,57.31201 l 0,101.98975 -31.49414,0 0,-196.47217 z"
         id="path4262"
         inkscape:connector-curvature="0" />
      <path
         d="m 759.82368,718.46851 -144.83643,0 q 0.36621,26.9165 10.62012,41.93115 16.11328,25.45166 47.24121,25.45166 38.08594,0 51.26953,-39.36768 l 31.49414,0 q -8.23974,45.41016 -47.24121,61.52344 -16.47949,6.7749 -36.8042,6.7749 -50.90332,0 -74.52392,-41.19873 -14.64844,-25.45166 -14.64844,-62.98828 0,-59.32617 35.33935,-88.25684 22.33887,-18.31054 54.74854,-18.31054 43.02978,0 67.38281,30.76172 7.50733,9.33838 12.08496,21.05713 7.87354,20.50781 7.87354,62.62207 z m -144.10401,-25.45166 110.2295,0 q 0.36621,-0.91553 0.36621,-2.38038 0,-30.02929 -21.97266,-46.875 -14.28223,-10.80322 -32.40967,-10.80322 -31.86035,0 -47.24121,28.01514 -7.50732,13.5498 -8.97217,32.04346 z"
         id="path4264"
         inkscape:connector-curvature="0" />
      <path
         d="m 829.03754,532.79956 0,160.21729 83.31299,-83.31299 40.1001,0 -68.29834,67.93213 80.2002,128.54004 -38.63526,0 -66.28418,-106.56739 -30.39551,30.0293 0,76.53809 -31.12793,0 0,-273.37647 31.12793,0 z"
         id="path4266"
         inkscape:connector-curvature="0" />
    </g>
    <rect
       style="stroke:none"
       id="rect4204"
       width="1000"
       height="20"
       x="24.409449"
       y="485.21936" />
    <rect
       style="stroke:none"
       id="rect4204-9"
       width="1000"
       height="20"
       x="24.409449"
       y="842.36224" />
  </g>
</svg>
